<svg width="192" height="60" viewBox="0 0 291 180" fill="none" xmlns="http://www.w3.org/2000/svg">
<path d="M44 52H0.5V134.5C0.5 170.9 29.5 179.333 44 179H130V134.5H44V52Z" fill="white"/>
<path d="M130 45.5H0.5C0.5 16.7 23.1667 3.5 34.5 0.5H130V45.5Z" fill="white"/>
<path d="M147.5 0.5V45.5H247C249 51.5 246.167 59 244.5 62C270.5 62.4 285.667 77.8333 290 85.5V45.5C290.4 14.3 266.833 2.5 255 0.5H147.5Z" fill="white"/>
<path d="M244.5 69.5H171V113.5H237.5C245.5 115.5 245.5 128.333 244.5 134.5H147.5V179H250C280.8 179 289.5 151.667 290 138V107.5C287.2 75.9 258.5 69 244.5 69.5Z" fill="white"/>
</svg>
